Flexion_states
version=1
nRows=17
nColumns=41
inDegrees=yes

# SIMM Motion File Header:
name Flexion_states
datacolumns 41
datarows 17
otherdata 1
range 2.11895220 4.64032097
endheader
time	/jointset/ground_thorax/thorax_tilt/value	/jointset/ground_thorax/thorax_tilt/speed	/jointset/ground_thorax/thorax_list/value	/jointset/ground_thorax/thorax_list/speed	/jointset/ground_thorax/thorax_rotation/value	/jointset/ground_thorax/thorax_rotation/speed	/jointset/ground_thorax/thorax_tx/value	/jointset/ground_thorax/thorax_tx/speed	/jointset/ground_thorax/thorax_ty/value	/jointset/ground_thorax/thorax_ty/speed	/jointset/ground_thorax/thorax_tz/value	/jointset/ground_thorax/thorax_tz/speed	/jointset/sternoclavicular/sternoclavicular_r2/value	/jointset/sternoclavicular/sternoclavicular_r2/speed	/jointset/sternoclavicular/sternoclavicular_r3/value	/jointset/sternoclavicular/sternoclavicular_r3/speed	/jointset/unrotscap/unrotscap_r3/value	/jointset/unrotscap/unrotscap_r3/speed	/jointset/unrotscap/unrotscap_r2/value	/jointset/unrotscap/unrotscap_r2/speed	/jointset/acromioclavicular/acromioclavicular_r2/value	/jointset/acromioclavicular/acromioclavicular_r2/speed	/jointset/acromioclavicular/acromioclavicular_r3/value	/jointset/acromioclavicular/acromioclavicular_r3/speed	/jointset/acromioclavicular/acromioclavicular_r1/value	/jointset/acromioclavicular/acromioclavicular_r1/speed	/jointset/unrothum/unrothum_r1/value	/jointset/unrothum/unrothum_r1/speed	/jointset/unrothum/unrothum_r3/value	/jointset/unrothum/unrothum_r3/speed	/jointset/unrothum/unrothum_r2/value	/jointset/unrothum/unrothum_r2/speed	/jointset/shoulder0/elv_angle/value	/jointset/shoulder0/elv_angle/speed	/jointset/shoulder1/shoulder_elv/value	/jointset/shoulder1/shoulder_elv/speed	/jointset/shoulder1/shoulder1_r2/value	/jointset/shoulder1/shoulder1_r2/speed	/jointset/shoulder2/shoulder_rot/value	/jointset/shoulder2/shoulder_rot/speed
      2.11895220	     -0.00000000	     -0.00000000	      0.00000000	      0.00000000	      0.00000000	      0.00000000	     -0.00000000	     -0.00000000	      0.00000000	      0.00000000	     -0.00000000	     -0.00000000	    -13.15907779	     16.59659138	      5.57355989	     -7.02952725	     -5.57355989	      7.02952725	     13.15907779	    -16.59659138	     -2.66442506	      3.36044628	     21.53265874	    -27.15758232	      9.67899968	    -12.20742101	     -9.67899968	     12.20742101	    -21.53265874	     27.15758232	      2.66442506	     -3.36044628	     90.00000000	     -0.00000000	     54.37686946	    -68.58160559	    -90.00000000	      0.00000000	      0.00000000	      0.00000000
      2.17557638	     -0.00000000	     -0.00000000	      0.00000000	      0.00000000	      0.00000000	      0.00000000	     -0.00000000	     -0.00000000	      0.00000000	      0.00000000	     -0.00000000	     -0.00000000	    -12.23389788	     16.04280706	      5.18169765	     -6.79497054	     -5.18169765	      6.79497054	     12.23389788	    -16.04280706	     -2.47709639	      3.24831709	     20.01875453	    -26.25140570	      8.99849485	    -11.80009169	     -8.99849485	     11.80009169	    -20.01875453	     26.25140570	      2.47709639	     -3.24831709	     90.00000000	     -0.00000000	     50.55377579	    -66.29321899	    -90.00000000	      0.00000000	      0.00000000	      0.00000000
      2.23220055	     -0.00000000	     -0.00000000	      0.00000000	      0.00000000	      0.00000000	      0.00000000	     -0.00000000	     -0.00000000	      0.00000000	      0.00000000	     -0.00000000	     -0.00000000	    -11.34507641	     15.33518649	      4.80523512	     -6.49525610	     -4.80523512	      6.49525610	     11.34507641	    -15.33518649	     -2.29712951	      3.10503942	     18.56434490	    -25.09350144	      8.34473302	    -11.27960998	     -8.34473302	     11.27960998	    -18.56434490	     25.09350144	      2.29712951	     -3.10503942	     90.00000000	     -0.00000000	     46.88092499	    -63.36913936	    -90.00000000	      0.00000000	      0.00000000	      0.00000000
      2.30347480	     -0.00000000	     -0.00000000	      0.00000000	      0.00000000	      0.00000000	      0.00000000	     -0.00000000	     -0.00000000	      0.00000000	      0.00000000	     -0.00000000	     -0.00000000	    -10.28638080	     14.36421735	      4.35682198	     -6.08399972	     -4.35682198	      6.08399972	     10.28638080	    -14.36421735	     -2.08276684	      2.90843943	     16.83196428	    -23.50467071	      7.56602234	    -10.56542544	     -7.56602234	     10.56542544	    -16.83196428	     23.50467071	      2.08276684	     -2.90843943	     90.00000000	     -0.00000000	     42.50610831	    -59.35683217	    -90.00000000	      0.00000000	      0.00000000	      0.00000000
      2.39223517	     -0.00000000	     -0.00000000	      0.00000000	      0.00000000	      0.00000000	      0.00000000	     -0.00000000	     -0.00000000	      0.00000000	      0.00000000	     -0.00000000	     -0.00000000	     -9.06647814	     13.12091489	      3.84012920	     -5.55739589	     -3.84012920	      5.55739589	      9.06647814	    -13.12091489	     -1.83576326	      2.65669791	     14.83579494	    -21.47021145	      6.66873777	     -9.65092943	     -6.66873777	      9.65092943	    -14.83579494	     21.47021145	      1.83576326	     -2.65669791	     90.00000000	     -0.00000000	     37.46514049	    -54.21917003	    -90.00000000	      0.00000000	      0.00000000	      0.00000000
      2.51343117	     -0.00000000	     -0.00000000	      0.00000000	      0.00000000	      0.00000000	      0.00000000	     -0.00000000	     -0.00000000	      0.00000000	      0.00000000	     -0.00000000	     -0.00000000	     -7.57946840	     11.41907158	      3.21030255	     -4.83657596	     -3.21030255	      4.83657596	      7.57946840	    -11.41907158	     -1.53467636	      2.31211191	     12.40254895	    -18.68542579	      5.57498583	     -8.39915927	     -5.57498583	      8.39915927	    -12.40254895	     18.68542579	      1.53467636	     -2.31211191	     90.00000000	     -0.00000000	     31.32041396	    -47.18669308	    -90.00000000	      0.00000000	      0.00000000	      0.00000000
      2.70314747	     -0.00000000	     -0.00000000	      0.00000000	      0.00000000	      0.00000000	      0.00000000	     -0.00000000	     -0.00000000	      0.00000000	      0.00000000	     -0.00000000	     -0.00000000	     -5.66415403	      8.77780973	      2.39906642	     -3.71786298	     -2.39906642	      3.71786298	      5.66415403	     -8.77780973	     -1.14686714	      1.77731423	      9.26845313	    -14.36343675	      4.16619963	     -6.45641123	     -4.16619963	      6.45641123	     -9.26845313	     14.36343675	      1.14686714	     -1.77731423	     90.00000000	     -0.00000000	     23.40581681	    -36.27228456	    -90.00000000	      0.00000000	      0.00000000	      0.00000000
      3.07516129	     -0.00000000	      0.00000000	      0.00000000	      0.00000000	      0.00000000	      0.00000000	     -0.00000000	     -0.00000000	      0.00000000	      0.00000000	     -0.00000000	     -0.00000000	     -3.34671248	      3.70641664	      1.41750834	     -1.56986192	     -1.41750834	      1.56986192	      3.34671248	     -3.70641664	     -0.67763598	      0.75046820	      5.47634256	     -6.06493904	      2.46163368	     -2.72620970	     -2.46163368	      2.72620970	     -5.47634256	      6.06493904	      0.67763598	     -0.75046820	     90.00000000	     -0.00000000	     13.82952140	    -15.31591628	    -90.00000000	      0.00000000	      0.00000000	      0.00000000
      3.75004847	     -0.00000000	      0.00000000	      0.00000000	      0.00000000	      0.00000000	      0.00000000	     -0.00000000	     -0.00000000	      0.00000000	      0.00000000	     -0.00000000	     -0.00000000	     -3.84018115	     -5.07426527	      1.62651821	      2.14921758	     -1.62651821	     -2.14921758	      3.84018115	      5.07426527	     -0.77755258	     -1.02742759	      6.28382259	      8.30319755	      2.82459856	      3.73231413	     -2.82459856	     -3.73231413	     -6.28382259	     -8.30319755	      0.77755258	      1.02742759	     90.00000000	     -0.00000000	     15.86866745	     20.96823689	    -90.00000000	      0.00000000	      0.00000000	      0.00000000
      3.91572244	     -0.00000000	      0.00000000	      0.00000000	      0.00000000	      0.00000000	      0.00000000	     -0.00000000	     -0.00000000	      0.00000000	      0.00000000	     -0.00000000	     -0.00000000	     -4.85253173	     -7.14060174	      2.05530179	      3.02441949	     -2.05530179	     -3.02441949	      4.85253173	      7.14060174	     -0.98253140	     -1.44581547	      7.94036721	     11.68441610	      3.56922072	      5.25218279	     -3.56922072	     -5.25218279	     -7.94036721	    -11.68441610	      0.98253140	      1.44581547	     90.00000000	     -0.00000000	     20.05197390	     29.50689819	    -90.00000000	      0.00000000	      0.00000000	      0.00000000
      4.03494023	     -0.00000000	      0.00000000	      0.00000000	      0.00000000	      0.00000000	      0.00000000	     -0.00000000	     -0.00000000	      0.00000000	      0.00000000	     -0.00000000	     -0.00000000	     -5.79127064	     -8.60442160	      2.45290698	      3.64442401	     -2.45290698	     -3.64442401	      5.79127064	      8.60442160	     -1.17260547	     -1.74220693	      9.47645848	     14.07971568	      4.25969871	      6.32887770	     -4.25969871	     -6.32887770	     -9.47645848	    -14.07971568	      1.17260547	      1.74220693	     90.00000000	     -0.00000000	     23.93109703	     35.55579787	    -90.00000000	      0.00000000	      0.00000000	      0.00000000
      4.17293259	     -0.00000000	      0.00000000	      0.00000000	      0.00000000	      0.00000000	      0.00000000	     -0.00000000	     -0.00000000	      0.00000000	      0.00000000	     -0.00000000	     -0.00000000	     -7.09410579	    -10.27371234	      3.00472602	      4.35145623	     -3.00472602	     -4.35145623	      7.09410579	     10.27371234	     -1.43640106	     -2.08020175	     11.60833315	     16.81123444	      5.21798326	      7.55670421	     -5.21798326	     -7.55670421	    -11.60833315	    -16.81123444	      1.43640106	      2.08020175	     90.00000000	     -0.00000000	     29.31476435	     42.45375882	    -90.00000000	      0.00000000	      0.00000000	      0.00000000
      4.29004898	     -0.00000000	      0.00000000	      0.00000000	      0.00000000	      0.00000000	      0.00000000	     -0.00000000	     -0.00000000	      0.00000000	      0.00000000	     -0.00000000	     -0.00000000	     -8.37918678	    -11.66794619	      3.54902525	      4.94198742	     -3.54902525	     -4.94198742	      8.37918678	     11.66794619	     -1.69660182	     -2.36250357	     13.71115609	     19.09266801	      6.16320897	      8.58221597	     -6.16320897	     -8.58221597	    -13.71115609	    -19.09266801	      1.69660182	      2.36250357	     90.00000000	     -0.00000000	     34.62506669	     48.21511031	    -90.00000000	      0.00000000	      0.00000000	      0.00000000
      4.40640060	     -0.00000000	      0.00000000	      0.00000000	      0.00000000	      0.00000000	      0.00000000	     -0.00000000	     -0.00000000	      0.00000000	      0.00000000	     -0.00000000	     -0.00000000	     -9.81613165	    -13.02607588	      4.15764680	      5.51722660	     -4.15764680	     -5.51722660	      9.81613165	     13.02607588	     -1.98755168	     -2.63749509	     16.06247918	     21.31502306	      7.22013629	      9.58117174	     -7.22013629	     -9.58117174	    -16.06247918	    -21.31502306	      1.98755168	      2.63749509	     90.00000000	     -0.00000000	     40.56291163	     53.82726958	    -90.00000000	      0.00000000	      0.00000000	      0.00000000
      4.49938302	     -0.00000000	      0.00000000	      0.00000000	      0.00000000	      0.00000000	      0.00000000	     -0.00000000	     -0.00000000	      0.00000000	      0.00000000	     -0.00000000	     -0.00000000	    -11.07627550	    -14.06748438	      4.69138383	      5.95831774	     -4.69138383	     -5.95831774	     11.07627550	     14.06748438	     -2.24270321	     -2.84835750	     18.12449658	     23.01911618	      8.14701978	     10.34716711	     -8.14701978	    -10.34716711	    -18.12449658	    -23.01911618	      2.24270321	      2.84835750	     90.00000000	     -0.00000000	     45.77016691	     58.13065127	    -90.00000000	      0.00000000	      0.00000000	      0.00000000
      4.57584365	     -0.00000000	      0.00000000	      0.00000000	      0.00000000	      0.00000000	      0.00000000	     -0.00000000	     -0.00000000	      0.00000000	      0.00000000	     -0.00000000	     -0.00000000	    -12.18195028	    -14.82925983	      5.15969512	      6.28096961	     -5.15969512	     -6.28096961	     12.18195028	     14.82925983	     -2.46657814	     -3.00260035	     19.93375086	     24.26563596	      8.96028543	     10.90748178	     -8.96028543	    -10.90748178	    -19.93375086	    -24.26563596	      2.46657814	      3.00260035	     90.00000000	     -0.00000000	     50.33911427	     61.27851350	    -90.00000000	      0.00000000	      0.00000000	      0.00000000
      4.64032097	     -0.00000000	      0.00000000	      0.00000000	      0.00000000	      0.00000000	      0.00000000	     -0.00000000	     -0.00000000	      0.00000000	      0.00000000	     -0.00000000	     -0.00000000	    -13.15410540	    -15.27965714	      5.57145382	      6.47173650	     -5.57145382	     -6.47173650	     13.15410540	     15.27965714	     -2.66341826	     -3.09379594	     21.52452225	     25.00263682	      9.67534231	     11.23876604	     -9.67534231	    -11.23876604	    -21.52452225	    -25.00263682	      2.66341826	      3.09379594	     90.00000000	     -0.00000000	     54.35632222	     63.13967704	    -90.00000000	      0.00000000	      0.00000000	      0.00000000
